<svg xmlns="http://www.w3.org/2000/svg" width="32" height="54" viewBox="0 0 32 54"><defs><style>.cls-1{fill:none;}.cls-2{fill:#333;fill-rule:evenodd;}</style></defs><title>iphone_ios_large</title><g id="Light"><g id="iOS"><rect class="cls-1" width="32" height="54"/><path class="cls-2" d="M16.72,35.41c0,2.89-1.46,4.68-3.8,4.68S9.1,38.3,9.1,35.41s1.46-4.67,3.81-4.68S16.71,32.52,16.72,35.41ZM32,27.79v14.4a12.72,12.72,0,0,1-.63,4.54,6.71,6.71,0,0,1-2.05,2.68,6.51,6.51,0,0,1-2.25,1.18,14.5,14.5,0,0,1-3.87.41H8.81A13.69,13.69,0,0,1,5,50.6,6.78,6.78,0,0,1,.64,46.75,12.72,12.72,0,0,1,0,42.21V27.81a12.72,12.72,0,0,1,.63-4.54,6.71,6.71,0,0,1,2.05-2.68,6.51,6.51,0,0,1,2.25-1.18A14.45,14.45,0,0,1,8.8,19H23.2a13.69,13.69,0,0,1,3.86.4,6.74,6.74,0,0,1,4.3,3.85A12.53,12.53,0,0,1,32,27.79ZM6.41,34H4.92v7.24H6.42V34Zm.22-1.95a1,1,0,1,0-1,1A1,1,0,0,0,6.63,32.06Zm11.58,3.35c0-3.75-2-6.07-5.3-6.07s-5.31,2.33-5.3,6.07,2,6.08,5.31,6.07S18.21,39.15,18.21,35.41ZM27.54,38c0-1.71-1-2.69-3.44-3.29L23,34.42c-1.87-.47-2.26-1.05-2.26-1.79,0-1.13,1-1.92,2.53-1.92a2.38,2.38,0,0,1,2.63,1.84l0,.18h1.47l0-.22c-.12-1.84-1.84-3.18-4.07-3.17-2.39,0-4.06,1.37-4.05,3.32,0,1.63,1,2.59,3.16,3.13l1.29.33c1.63.4,2.36,1,2.36,2,0,1.16-1.13,2-2.7,2s-2.82-.82-2.95-2l0-.17H18.89l0,.21c.14,2,1.89,3.35,4.34,3.35S27.54,40.07,27.54,38Z"/></g></g></svg>