<svg xmlns="http://www.w3.org/2000/svg" width="32" height="54" viewBox="0 0 32 54"><defs><style>.cls-1{fill:#333;fill-rule:evenodd;}</style></defs><title>ipad_ios_large</title><g id="Light"><g id="iOS"><path class="cls-1" d="M16.71,35.41c0,2.89-1.46,4.68-3.8,4.68S9.09,38.3,9.09,35.41s1.47-4.68,3.82-4.68S16.71,32.52,16.71,35.41ZM32,27.8V42.2a12.72,12.72,0,0,1-.63,4.54,6.8,6.8,0,0,1-4.3,3.85A13.76,13.76,0,0,1,23.2,51H8.8a13.76,13.76,0,0,1-3.87-.41,6.8,6.8,0,0,1-4.3-3.85A12.72,12.72,0,0,1,0,42.2V27.8a12.72,12.72,0,0,1,.63-4.54,6.8,6.8,0,0,1,4.3-3.85A13.76,13.76,0,0,1,8.8,19H23.2a13.76,13.76,0,0,1,3.87.41,6.8,6.8,0,0,1,4.3,3.85A12.72,12.72,0,0,1,32,27.8ZM6.41,34H4.92v7.24H6.41V34Zm.22-2a1,1,0,1,0-1,1A1,1,0,0,0,6.63,32.05ZM18.2,35.41c0-3.75-2-6.07-5.29-6.07S7.6,31.66,7.6,35.41s2,6.07,5.31,6.07S18.2,39.15,18.2,35.41ZM27.53,38c0-1.7-1-2.69-3.43-3.28L23,34.42c-1.88-.47-2.26-1.05-2.26-1.79,0-1.12,1-1.91,2.53-1.91a2.37,2.37,0,0,1,2.62,1.84l0,.17h1.46v-.21c-.13-1.84-1.84-3.18-4.07-3.18-2.39,0-4.06,1.37-4.06,3.33,0,1.62,1,2.59,3.16,3.13l1.29.32c1.64.41,2.37,1,2.37,2,0,1.16-1.14,2-2.7,2s-2.83-.83-3-2l0-.18H18.89v.21c.14,2,1.89,3.35,4.34,3.35S27.53,40.08,27.53,38Z"/></g></g></svg>