<svg xmlns="http://www.w3.org/2000/svg" viewBox="0 0 47 54"><path d="M10.39 30.63a3.81 3.81 0 0 0 .88-2.72 3.78 3.78 0 0 0-2.51 1.3 3.57 3.57 0 0 0-.9 2.61 3.15 3.15 0 0 0 2.53-1.19m.82 1.37c-1.4-.08-2.58.79-3.25.79s-1.69-.75-2.79-.73a4.12 4.12 0 0 0-3.5 2.13c-1.5 2.58-.4 6.42 1.06 8.52.71 1 1.56 2.19 2.69 2.15s1.48-.69 2.77-.69 1.67.69 2.79.67 1.9-1 2.6-2.08a9.25 9.25 0 0 0 1.17-2.4 3.78 3.78 0 0 1-2.27-3.44 3.86 3.86 0 0 1 1.83-3.23 4 4 0 0 0-3.1-1.69m8.93-2v2.83h2.28v1.87h-2.28v6.7c0 1 .45 1.51 1.45 1.51a7.64 7.64 0 0 0 .82-.06v1.88a7.85 7.85 0 0 1-1.35.1c-2.36 0-3.27-.91-3.27-3.19v-6.9H16v-1.87h1.74V30zm10.25 14.73h-2.5l-4.2-11.86h2.49l2.95 9.53h.06l2.95-9.53h2.44zm10.98 0h-2.16v-4.86h-4.64v-2.14h4.63v-4.86h2.16v4.86H46v2.14h-4.63z" fill="#f0f0f0"/></svg>